<svg xmlns="http://www.w3.org/2000/svg" width="16" height="16" viewBox="0 0 16 16">
  <path d="M0,5.333V4C0,1.793.667,0,4,0S8,1.793,8,4V5.333" transform="translate(4 1.333)" fill="none" stroke="#2d3142" stroke-linecap="round" stroke-linejoin="round" stroke-width="1.5"/>
  <path d="M3.333,1.667A1.667,1.667,0,1,1,1.667,0,1.667,1.667,0,0,1,3.333,1.667Z" transform="translate(6.333 9)" fill="none" stroke="#2d3142" stroke-linecap="round" stroke-linejoin="round" stroke-width="1.5"/>
  <path d="M10,8H3.333C.667,8,0,7.333,0,4.667V3.333C0,.667.667,0,3.333,0H10c2.667,0,3.333.667,3.333,3.333V4.667C13.333,7.333,12.667,8,10,8Z" transform="translate(1.333 6.667)" fill="none" stroke="#2d3142" stroke-linecap="round" stroke-linejoin="round" stroke-width="1.5"/>
  <g transform="translate(16 16) rotate(180)" fill="none" opacity="0">
    <path d="M0,0H16V16H0Z" stroke="none"/>
    <path d="M 1 1 L 1 15 L 15 15 L 15 1 L 1 1 M 0 0 L 16 0 L 16 16 L 0 16 L 0 0 Z" stroke="none" fill="#2d3142"/>
  </g>
</svg>
