<svg xmlns="http://www.w3.org/2000/svg" width="24" height="24" viewBox="0 0 24 24">
  <g id="screenmirroring" transform="translate(-300 -318)">
    <path id="Vector" d="M7,20h6c5,0,7-2,7-7V7c0-5-2-7-7-7H7C2,0,0,2,0,7v6C0,18,2,20,7,20Z" transform="translate(302 320)" fill="none" stroke="#0a16aa" stroke-linecap="round" stroke-linejoin="round" stroke-width="1.5"/>
    <path id="Vector-2" data-name="Vector" d="M2.1,6H5.9C7.4,6,8,5.4,8,3.9V2.1C8,.6,7.4,0,5.9,0H2.1C.6,0,0,.6,0,2.1V3.9C0,5.4.6,6,2.1,6Z" transform="translate(310.5 330.5)" fill="none" stroke="#0a16aa" stroke-linecap="round" stroke-linejoin="round" stroke-width="1.5"/>
    <path id="Vector-3" data-name="Vector" d="M0,0H24V24H0Z" transform="translate(300 318)" fill="none" opacity="0"/>
  </g>
</svg>
